<svg width="68" height="38" viewBox="0 0 68 38" fill="none" xmlns="http://www.w3.org/2000/svg">
<path d="M51.3637 5.75098H24.5724C23.6177 5.75098 22.844 6.52384 22.844 7.47753V10.7923L20.6954 10.8005C20.0588 10.8029 19.3466 11.2813 19.1041 11.8691L16.9384 17.1178C15.9837 17.1178 10.0245 17.8906 10.0245 18.8442V26.758C10.0245 27.4782 12.1086 28.0949 13.5399 28.3541C14.5212 26.2233 16.673 24.7371 19.1709 24.7371C21.7202 24.7371 23.9138 26.2827 24.8653 28.4846H38.8022C39.7537 26.2827 41.9472 24.7371 44.4965 24.7371C47.0457 24.7371 49.2393 26.2827 50.1908 28.4846H51.3636C52.3183 28.4846 53.092 27.7117 53.092 26.758V7.47745C53.0925 6.52377 52.3184 5.75098 51.3637 5.75098ZM45.6992 16.6302C45.6992 17.6122 44.9017 18.4088 43.9186 18.4088H39.6781V22.6448C39.6781 23.6273 38.8811 24.4235 37.8975 24.4235H37.4016C36.4185 24.4235 35.6211 23.6273 35.6211 22.6448V18.4088H31.381C30.3974 18.4088 29.6004 17.6127 29.6004 16.6302V16.1348C29.6004 15.1522 30.3974 14.3561 31.381 14.3561H35.6211V10.1201C35.6211 9.13758 36.4185 8.34144 37.4016 8.34144H37.8975C38.8811 8.34144 39.6781 9.13765 39.6781 10.1201V14.3561H43.9186C44.9017 14.3561 45.6992 15.1523 45.6992 16.1348V16.6302Z" fill="white"/>
<path d="M23.9961 30.931C23.9961 30.0367 23.7481 29.2025 23.3233 28.4847C22.4836 27.0653 20.9409 26.1108 19.1708 26.1108C17.4008 26.1108 15.8575 27.0659 15.0179 28.4847C14.5931 29.2026 14.3451 30.0367 14.3451 30.931C14.3451 33.5932 16.5057 35.7511 19.1704 35.7511C21.8355 35.751 23.9961 33.5932 23.9961 30.931Z" fill="white"/>
<path d="M49.3221 30.931C49.3221 30.0367 49.0741 29.2025 48.6493 28.4847C47.8097 27.0653 46.2665 26.1108 44.4964 26.1108C42.7263 26.1108 41.1836 27.0659 40.344 28.4847C39.919 29.2026 39.6711 30.0367 39.6711 30.931C39.6711 33.5932 41.8317 35.7511 44.4964 35.7511C47.162 35.751 49.3221 33.5932 49.3221 30.931Z" fill="white"/>
</svg>
