<svg width="27" height="21" viewBox="0 0 27 21" fill="none" xmlns="http://www.w3.org/2000/svg">
<path d="M3.94272 12.167C3.50471 12.7889 3.94272 13.089 3.94272 13.8014C3.94272 16.7878 8.17954 19.209 13.4059 19.209C18.6324 19.209 22.8692 16.7878 22.8692 13.8014C22.8692 13.1255 23.2639 12.7632 22.8692 12.167" stroke="#4285F4" stroke-width="2" stroke-miterlimit="10" stroke-linecap="round" stroke-linejoin="round"/>
<path d="M13.4001 2.70378C13.0066 2.7038 12.4949 3.10106 11.6989 3.75532C10.5421 4.70618 8.95785 6.0084 6.64604 6.0084C6.46478 6.0084 6.28398 5.99017 6.10636 5.95398L2.70773 5.26169C2.70773 5.26169 2.70773 5.26169 2.70773 5.26168L4.60593 10.5345L13.4055 12.1233L22.205 10.5345L24.1032 5.26169C24.1032 5.26169 24.1033 5.26166 24.1032 5.26168L20.7046 5.95398C20.527 5.99017 20.3462 6.0084 20.1649 6.0084C17.8528 6.0084 16.2679 4.70731 15.1106 3.75731C14.3125 3.10221 13.7993 2.70441 13.4055 2.70378H13.4001ZM13.4 0C13.4019 0 13.4036 1.28926e-06 13.4055 5.15705e-06C16.1743 0.00437189 17.4612 3.30462 20.1649 3.30462L23.5636 2.61231C25.6301 2.19134 27.3616 4.19317 26.6472 6.1775L24.749 11.4503C24.422 12.3586 23.6355 13.0237 22.6854 13.1952L13.4055 14.8708L4.12551 13.1952C3.17548 13.0237 2.38898 12.3586 2.06197 11.4503L0.16377 6.1775C-0.550585 4.19317 1.18087 2.19134 3.2474 2.61231L6.64604 3.30462C9.348 3.30462 10.635 6.57524e-05 13.4 0Z" fill="#4285F4"/>
<path d="M13.4059 8.62353L12.611 9.20485L12.9179 8.26934L12.1203 7.69343H13.1045L13.4059 6.75928L13.7074 7.69614H14.6916L13.894 8.27204L14.2009 9.20755L13.4059 8.62353Z" fill="#4285F4" stroke="#4285F4" stroke-miterlimit="10"/>
</svg>
