<svg width="32" height="32" viewBox="0 0 32 32" fill="none" xmlns="http://www.w3.org/2000/svg">
<path d="M22 10.6666C22 12.6666 21.3333 15.3332 18.1333 16.3999C19.0667 14.1332 19.2 11.8666 18.5333 9.73323C17.6 6.93323 14.5333 4.79989 12.4 3.59989C11.8667 3.19989 10.9333 3.73323 11.0667 4.53323C11.0667 5.99989 10.6667 8.13323 8.4 10.3999C5.46667 13.3332 4 16.3999 4 19.3332C4 23.1999 6.66667 27.9999 12 27.9999C6.66667 22.6666 10.6667 17.9999 10.6667 17.9999C11.7333 25.8666 17.3333 27.9999 20 27.9999C22.2667 27.9999 26.6667 26.3999 26.6667 19.4666C26.6667 15.3332 24.9333 12.1332 23.4667 10.2666C23.0667 9.59989 22.1333 9.99989 22 10.6666Z" fill="white"/>
</svg>
