<svg width="27" height="24" viewBox="0 0 27 24" fill="none" xmlns="http://www.w3.org/2000/svg">
<path d="M15.6142 23.6364L12.2511 19.6009H6.00545C5.6869 19.6009 5.3814 19.4794 5.15615 19.2632C4.93091 19.047 4.80436 18.7537 4.80436 18.4479V5.88373C4.80436 5.57793 4.93091 5.28466 5.15615 5.06844C5.3814 4.85221 5.6869 4.73073 6.00545 4.73073H25.2229C25.5415 4.73073 25.847 4.85221 26.0722 5.06844C26.2975 5.28466 26.424 5.57793 26.424 5.88373V18.4479C26.424 18.7537 26.2975 19.047 26.0722 19.2632C25.847 19.4794 25.5415 19.6009 25.2229 19.6009H18.9772L15.6142 23.6364ZM17.823 17.2949H24.0218V7.03672H7.20654V17.2949H13.4054L15.6142 19.9445L17.823 17.2949ZM1.20109 0H21.6196V2.30599H2.40218V14.9889H0V1.15299C0 0.847201 0.126543 0.553932 0.351791 0.337704C0.577039 0.121476 0.882542 0 1.20109 0Z" fill="#4285F4"/>
</svg>
