<svg width="25" height="23" viewBox="0 0 25 23" fill="none" xmlns="http://www.w3.org/2000/svg">
<path d="M12.2333 22.7273C5.47687 22.7273 0 17.6398 0 11.3636C0 5.0875 5.47687 0 12.2333 0C18.9898 0 24.4667 5.0875 24.4667 11.3636C24.4667 17.6398 18.9898 22.7273 12.2333 22.7273ZM6.13257 18.4727C7.86426 19.7587 10.0163 20.4578 12.2333 20.4545C14.6433 20.4545 16.849 19.6455 18.5543 18.3045C17.7576 17.5452 16.805 16.9419 15.7529 16.5305C14.7008 16.119 13.5706 15.9077 12.4291 15.9091C11.2456 15.9078 10.0748 16.1351 8.99085 16.5764C7.90693 17.0177 6.93359 17.6635 6.13257 18.4727ZM4.42357 16.8409C5.45173 15.8273 6.69246 15.0201 8.06928 14.469C9.4461 13.9179 10.9299 13.6345 12.4291 13.6364C13.8746 13.6346 15.3063 13.8981 16.6419 14.4118C17.9775 14.9255 19.1908 15.6791 20.2119 16.6295C21.2592 15.2604 21.8776 13.6484 21.9987 11.9726C22.1197 10.2968 21.7386 8.6226 20.8976 7.13574C20.0566 5.64889 18.7886 4.40753 17.2343 3.54937C15.68 2.69121 13.9001 2.24982 12.0922 2.27415C10.2842 2.29848 8.51888 2.7876 6.99199 3.68722C5.4651 4.58685 4.23635 5.86182 3.44208 7.37068C2.64781 8.87954 2.31907 10.5633 2.49232 12.2352C2.66557 13.907 3.33404 15.5016 4.42357 16.842V16.8409ZM12.2333 12.5C10.9355 12.5 9.6909 12.0211 8.77323 11.1687C7.85555 10.3162 7.34 9.16007 7.34 7.95454C7.34 6.74901 7.85555 5.59286 8.77323 4.74042C9.6909 3.88798 10.9355 3.40909 12.2333 3.40909C13.5311 3.40909 14.7758 3.88798 15.6934 4.74042C16.6111 5.59286 17.1267 6.74901 17.1267 7.95454C17.1267 9.16007 16.6111 10.3162 15.6934 11.1687C14.7758 12.0211 13.5311 12.5 12.2333 12.5ZM12.2333 10.2273C12.8822 10.2273 13.5046 9.98782 13.9634 9.5616C14.4222 9.13539 14.68 8.55731 14.68 7.95454C14.68 7.35178 14.4222 6.7737 13.9634 6.34748C13.5046 5.92126 12.8822 5.68182 12.2333 5.68182C11.5844 5.68182 10.9621 5.92126 10.5033 6.34748C10.0444 6.7737 9.78667 7.35178 9.78667 7.95454C9.78667 8.55731 10.0444 9.13539 10.5033 9.5616C10.9621 9.98782 11.5844 10.2273 12.2333 10.2273Z" fill="#2F80ED"/>
</svg>
