<svg width="42" height="44" viewBox="0 0 42 44" fill="none" xmlns="http://www.w3.org/2000/svg">
<ellipse cx="21.4358" cy="22.3474" rx="20.5234" ry="21.5182" fill="#C4C4C4" fill-opacity="0.2"/>
<g clip-path="url(#clip0_180_1389)">
<path d="M10.3253 12.5643C10.27 12.0859 10.588 11.651 11.0444 11.593C11.5007 11.535 11.9155 11.8684 11.9708 12.3469L12.4686 16.3918C14.3492 13.4632 17.5296 11.6509 20.9588 11.6509C25.3284 11.6509 29.214 14.565 30.6383 18.8855C30.7903 19.3349 30.5553 19.8278 30.1266 19.9873C30.0437 20.0163 29.9469 20.0308 29.8501 20.0308C29.5044 20.0308 29.1863 19.7988 29.0619 19.4508C27.8727 15.8263 24.6094 13.3907 20.9589 13.3907C17.9721 13.3907 15.1927 15.0434 13.644 17.6821L17.7923 17.1892C18.2487 17.1312 18.6635 17.4791 18.705 17.9576C18.7465 18.436 18.4284 18.8709 17.9721 18.9145L11.9985 19.6249C11.9708 19.6249 11.9294 19.6249 11.9017 19.6249C11.4868 19.6249 11.1273 19.3059 11.0858 18.871L10.3253 12.5643ZM30.8733 24.2062L24.8997 24.9166C24.4434 24.9746 24.1115 25.3951 24.1668 25.8735C24.2222 26.3519 24.6231 26.6999 25.0795 26.6419L28.6885 26.2215C27.278 29.3385 24.2774 31.3538 20.945 31.3538C17.1977 31.3538 13.8237 28.7296 12.7451 24.9746C12.6069 24.5107 12.1505 24.2497 11.7081 24.3947C11.2656 24.5396 11.0167 25.0181 11.1549 25.482C11.7772 27.6422 13.077 29.585 14.7916 30.9478C16.5754 32.3541 18.7049 33.108 20.945 33.108C25.038 33.108 28.7023 30.5563 30.3202 26.6853L30.9009 31.5132C30.9563 31.9481 31.3158 32.2671 31.7168 32.2671C31.7582 32.2671 31.7859 32.2671 31.8274 32.2671C32.2837 32.209 32.6017 31.7741 32.5464 31.2957L31.7721 24.9891C31.7306 24.4962 31.3296 24.1627 30.8733 24.2062Z" fill="white"/>
</g>
<defs>
<clipPath id="clip0_180_1389">
<rect width="22.2336" height="23.3114" fill="white" transform="matrix(1 0 0 -1 10.3191 34.0029)"/>
</clipPath>
</defs>
</svg>
