<svg width="25" height="23" viewBox="0 0 25 23" fill="none" xmlns="http://www.w3.org/2000/svg">
<path d="M19.3081 16.3535L24.4667 21.1442L22.7624 22.7273L17.6051 17.9355C15.6861 19.3644 13.2992 20.1416 10.8398 20.1384C4.85624 20.1384 0 15.6274 0 10.0692C0 4.51099 4.85624 0 10.8398 0C16.8234 0 21.6796 4.51099 21.6796 10.0692C21.6831 12.3538 20.8464 14.5709 19.3081 16.3535ZM16.892 15.5233C18.4206 14.0632 19.2742 12.1059 19.2708 10.0692C19.2708 5.74167 15.4973 2.2376 10.8398 2.2376C6.1811 2.2376 2.40885 5.74167 2.40885 10.0692C2.40885 14.3956 6.1811 17.9008 10.8398 17.9008C13.0324 17.904 15.1395 17.111 16.7114 15.6911L16.892 15.5233Z" fill="#4285F4"/>
</svg>
